<mxfile host="app.diagrams.net" agent="Mozilla/5.0 (Windows NT 10.0; Win64; x64) AppleWebKit/537.36 (KHTML, like Gecko) Chrome/132.0.0.0 Safari/537.36" version="26.1.0">
  <diagram name="Page-1" id="fjw_ZBD7iB98nJHlAS4L">
    <mxGraphModel dx="1914" dy="966" grid="1" gridSize="10" guides="1" tooltips="1" connect="1" arrows="1" fold="1" page="1" pageScale="1" pageWidth="850" pageHeight="1100" math="0" shadow="0">
      <root>
        <mxCell id="0" />
        <mxCell id="1" parent="0" />
        <mxCell id="mJUBUc1-brahjCgHFWaM-1" value="" style="rounded=0;whiteSpace=wrap;html=1;" vertex="1" parent="1">
          <mxGeometry x="40" y="240" width="600" height="490" as="geometry" />
        </mxCell>
        <mxCell id="mJUBUc1-brahjCgHFWaM-25" style="edgeStyle=orthogonalEdgeStyle;rounded=0;orthogonalLoop=1;jettySize=auto;html=1;exitX=0.5;exitY=0;exitDx=0;exitDy=0;" edge="1" parent="1" source="mJUBUc1-brahjCgHFWaM-2">
          <mxGeometry relative="1" as="geometry">
            <mxPoint x="485" y="120" as="targetPoint" />
          </mxGeometry>
        </mxCell>
        <mxCell id="mJUBUc1-brahjCgHFWaM-2" value="Network Stack" style="rounded=0;whiteSpace=wrap;html=1;" vertex="1" parent="1">
          <mxGeometry x="425" y="260" width="120" height="60" as="geometry" />
        </mxCell>
        <mxCell id="mJUBUc1-brahjCgHFWaM-3" value="" style="endArrow=none;html=1;rounded=0;entryX=0.994;entryY=0.231;entryDx=0;entryDy=0;entryPerimeter=0;" edge="1" parent="1">
          <mxGeometry width="50" height="50" relative="1" as="geometry">
            <mxPoint x="40" y="390" as="sourcePoint" />
            <mxPoint x="636.4000000000001" y="388.8800000000001" as="targetPoint" />
          </mxGeometry>
        </mxCell>
        <mxCell id="mJUBUc1-brahjCgHFWaM-24" style="edgeStyle=orthogonalEdgeStyle;rounded=0;orthogonalLoop=1;jettySize=auto;html=1;exitX=1;exitY=0.5;exitDx=0;exitDy=0;entryX=0;entryY=0.5;entryDx=0;entryDy=0;" edge="1" parent="1" source="mJUBUc1-brahjCgHFWaM-4" target="mJUBUc1-brahjCgHFWaM-2">
          <mxGeometry relative="1" as="geometry" />
        </mxCell>
        <mxCell id="mJUBUc1-brahjCgHFWaM-4" value="Edge Compute (x3)" style="rounded=0;whiteSpace=wrap;html=1;" vertex="1" parent="1">
          <mxGeometry x="130" y="260" width="120" height="60" as="geometry" />
        </mxCell>
        <mxCell id="mJUBUc1-brahjCgHFWaM-6" value="" style="rounded=0;whiteSpace=wrap;html=1;fillColor=#dae8fc;strokeColor=#6c8ebf;" vertex="1" parent="1">
          <mxGeometry x="130" y="320" width="30" height="30" as="geometry" />
        </mxCell>
        <mxCell id="mJUBUc1-brahjCgHFWaM-7" value="" style="rounded=0;whiteSpace=wrap;html=1;fillColor=#dae8fc;strokeColor=#6c8ebf;" vertex="1" parent="1">
          <mxGeometry x="220" y="320" width="30" height="30" as="geometry" />
        </mxCell>
        <mxCell id="mJUBUc1-brahjCgHFWaM-8" value="" style="rounded=0;whiteSpace=wrap;html=1;fillColor=#dae8fc;strokeColor=#6c8ebf;" vertex="1" parent="1">
          <mxGeometry x="190" y="320" width="30" height="30" as="geometry" />
        </mxCell>
        <mxCell id="mJUBUc1-brahjCgHFWaM-9" value="" style="rounded=0;whiteSpace=wrap;html=1;fillColor=#dae8fc;strokeColor=#6c8ebf;" vertex="1" parent="1">
          <mxGeometry x="160" y="320" width="30" height="30" as="geometry" />
        </mxCell>
        <mxCell id="mJUBUc1-brahjCgHFWaM-10" value="" style="rounded=0;whiteSpace=wrap;html=1;fillColor=#dae8fc;strokeColor=#6c8ebf;" vertex="1" parent="1">
          <mxGeometry x="160" y="350" width="30" height="30" as="geometry" />
        </mxCell>
        <mxCell id="mJUBUc1-brahjCgHFWaM-11" value="" style="rounded=0;whiteSpace=wrap;html=1;fillColor=#dae8fc;strokeColor=#6c8ebf;" vertex="1" parent="1">
          <mxGeometry x="190" y="350" width="30" height="30" as="geometry" />
        </mxCell>
        <mxCell id="mJUBUc1-brahjCgHFWaM-37" style="edgeStyle=orthogonalEdgeStyle;rounded=0;orthogonalLoop=1;jettySize=auto;html=1;exitX=0.5;exitY=0;exitDx=0;exitDy=0;" edge="1" parent="1" source="mJUBUc1-brahjCgHFWaM-17">
          <mxGeometry relative="1" as="geometry">
            <mxPoint x="190" y="390" as="targetPoint" />
          </mxGeometry>
        </mxCell>
        <mxCell id="mJUBUc1-brahjCgHFWaM-38" value="Boot from" style="edgeLabel;html=1;align=center;verticalAlign=middle;resizable=0;points=[];" vertex="1" connectable="0" parent="mJUBUc1-brahjCgHFWaM-37">
          <mxGeometry x="0.4813" y="1" relative="1" as="geometry">
            <mxPoint x="1" y="54" as="offset" />
          </mxGeometry>
        </mxCell>
        <mxCell id="mJUBUc1-brahjCgHFWaM-17" value="Sales Counter" style="rounded=0;whiteSpace=wrap;html=1;verticalAlign=bottom;" vertex="1" parent="1">
          <mxGeometry x="70" y="640" width="250" height="80" as="geometry" />
        </mxCell>
        <mxCell id="mJUBUc1-brahjCgHFWaM-18" value="" style="rounded=0;whiteSpace=wrap;html=1;fillColor=#f8cecc;strokeColor=#b85450;" vertex="1" parent="1">
          <mxGeometry x="80" y="655" width="30" height="40" as="geometry" />
        </mxCell>
        <mxCell id="mJUBUc1-brahjCgHFWaM-19" value="" style="rounded=0;whiteSpace=wrap;html=1;fillColor=#f8cecc;strokeColor=#b85450;" vertex="1" parent="1">
          <mxGeometry x="120" y="655" width="30" height="40" as="geometry" />
        </mxCell>
        <mxCell id="mJUBUc1-brahjCgHFWaM-20" value="" style="rounded=0;whiteSpace=wrap;html=1;fillColor=#f8cecc;strokeColor=#b85450;" vertex="1" parent="1">
          <mxGeometry x="160" y="655" width="30" height="40" as="geometry" />
        </mxCell>
        <mxCell id="mJUBUc1-brahjCgHFWaM-21" value="" style="rounded=0;whiteSpace=wrap;html=1;fillColor=#f8cecc;strokeColor=#b85450;" vertex="1" parent="1">
          <mxGeometry x="200" y="655" width="30" height="40" as="geometry" />
        </mxCell>
        <mxCell id="mJUBUc1-brahjCgHFWaM-22" value="" style="rounded=0;whiteSpace=wrap;html=1;fillColor=#f8cecc;strokeColor=#b85450;" vertex="1" parent="1">
          <mxGeometry x="240" y="655" width="30" height="40" as="geometry" />
        </mxCell>
        <mxCell id="mJUBUc1-brahjCgHFWaM-23" value="" style="rounded=0;whiteSpace=wrap;html=1;fillColor=#f8cecc;strokeColor=#b85450;" vertex="1" parent="1">
          <mxGeometry x="280" y="655" width="30" height="40" as="geometry" />
        </mxCell>
        <mxCell id="mJUBUc1-brahjCgHFWaM-26" style="edgeStyle=orthogonalEdgeStyle;rounded=0;orthogonalLoop=1;jettySize=auto;html=1;exitX=0.5;exitY=0;exitDx=0;exitDy=0;" edge="1" parent="1" source="mJUBUc1-brahjCgHFWaM-2">
          <mxGeometry relative="1" as="geometry">
            <mxPoint x="640" y="120" as="targetPoint" />
            <mxPoint x="495" y="270" as="sourcePoint" />
          </mxGeometry>
        </mxCell>
        <mxCell id="mJUBUc1-brahjCgHFWaM-27" value="CATO&amp;nbsp;&lt;div&gt;Backbone&lt;/div&gt;" style="ellipse;whiteSpace=wrap;html=1;dashed=1;dashPattern=8 8;" vertex="1" parent="1">
          <mxGeometry x="425" y="40" width="120" height="80" as="geometry" />
        </mxCell>
        <mxCell id="mJUBUc1-brahjCgHFWaM-28" value="Mobile BB" style="ellipse;whiteSpace=wrap;html=1;aspect=fixed;" vertex="1" parent="1">
          <mxGeometry x="600" y="40" width="80" height="80" as="geometry" />
        </mxCell>
        <mxCell id="mJUBUc1-brahjCgHFWaM-39" style="edgeStyle=orthogonalEdgeStyle;rounded=0;orthogonalLoop=1;jettySize=auto;html=1;exitX=0.5;exitY=0;exitDx=0;exitDy=0;entryX=0.5;entryY=1;entryDx=0;entryDy=0;" edge="1" parent="1" source="mJUBUc1-brahjCgHFWaM-29" target="mJUBUc1-brahjCgHFWaM-35">
          <mxGeometry relative="1" as="geometry" />
        </mxCell>
        <mxCell id="mJUBUc1-brahjCgHFWaM-40" value="Web App&lt;div&gt;Connect&lt;/div&gt;" style="edgeLabel;html=1;align=center;verticalAlign=middle;resizable=0;points=[];" vertex="1" connectable="0" parent="mJUBUc1-brahjCgHFWaM-39">
          <mxGeometry x="-0.5698" relative="1" as="geometry">
            <mxPoint as="offset" />
          </mxGeometry>
        </mxCell>
        <mxCell id="mJUBUc1-brahjCgHFWaM-29" value="Salon" style="rounded=0;whiteSpace=wrap;html=1;fillColor=#d5e8d4;strokeColor=#82b366;" vertex="1" parent="1">
          <mxGeometry x="515" y="600" width="35" height="40" as="geometry" />
        </mxCell>
        <mxCell id="mJUBUc1-brahjCgHFWaM-42" style="edgeStyle=orthogonalEdgeStyle;rounded=0;orthogonalLoop=1;jettySize=auto;html=1;exitX=0.5;exitY=0;exitDx=0;exitDy=0;" edge="1" parent="1" source="mJUBUc1-brahjCgHFWaM-30">
          <mxGeometry relative="1" as="geometry">
            <mxPoint x="190" y="390" as="targetPoint" />
          </mxGeometry>
        </mxCell>
        <mxCell id="mJUBUc1-brahjCgHFWaM-30" value="&lt;span style=&quot;font-size: 9px;&quot;&gt;PoS Mobile&lt;/span&gt;" style="rounded=0;whiteSpace=wrap;html=1;fillColor=#d5e8d4;strokeColor=#82b366;" vertex="1" parent="1">
          <mxGeometry x="350" y="480" width="35" height="40" as="geometry" />
        </mxCell>
        <mxCell id="mJUBUc1-brahjCgHFWaM-41" style="edgeStyle=orthogonalEdgeStyle;rounded=0;orthogonalLoop=1;jettySize=auto;html=1;exitX=0.5;exitY=0;exitDx=0;exitDy=0;" edge="1" parent="1" source="mJUBUc1-brahjCgHFWaM-31">
          <mxGeometry relative="1" as="geometry">
            <mxPoint x="190" y="390" as="targetPoint" />
          </mxGeometry>
        </mxCell>
        <mxCell id="mJUBUc1-brahjCgHFWaM-31" value="&lt;font style=&quot;font-size: 9px;&quot;&gt;PoS Mobile&lt;/font&gt;" style="rounded=0;whiteSpace=wrap;html=1;fillColor=#d5e8d4;strokeColor=#82b366;" vertex="1" parent="1">
          <mxGeometry x="270" y="480" width="35" height="40" as="geometry" />
        </mxCell>
        <mxCell id="mJUBUc1-brahjCgHFWaM-35" value="Local Network" style="rounded=0;whiteSpace=wrap;html=1;" vertex="1" parent="1">
          <mxGeometry x="425" y="320" width="120" height="30" as="geometry" />
        </mxCell>
        <mxCell id="mJUBUc1-brahjCgHFWaM-43" value="" style="rounded=0;whiteSpace=wrap;html=1;fillColor=#dae8fc;strokeColor=#6c8ebf;" vertex="1" parent="1">
          <mxGeometry x="280" y="755" width="20" height="20" as="geometry" />
        </mxCell>
        <mxCell id="mJUBUc1-brahjCgHFWaM-44" value="" style="rounded=0;whiteSpace=wrap;html=1;fillColor=#f8cecc;strokeColor=#b85450;" vertex="1" parent="1">
          <mxGeometry x="280" y="785" width="20" height="20" as="geometry" />
        </mxCell>
        <mxCell id="mJUBUc1-brahjCgHFWaM-45" value="" style="rounded=0;whiteSpace=wrap;html=1;fillColor=#d5e8d4;strokeColor=#82b366;" vertex="1" parent="1">
          <mxGeometry x="80" y="755" width="20" height="20" as="geometry" />
        </mxCell>
        <mxCell id="mJUBUc1-brahjCgHFWaM-46" value="Virtual Machine Register (PoS)" style="text;html=1;align=center;verticalAlign=middle;resizable=0;points=[];autosize=1;strokeColor=none;fillColor=none;" vertex="1" parent="1">
          <mxGeometry x="300" y="750" width="190" height="30" as="geometry" />
        </mxCell>
        <mxCell id="mJUBUc1-brahjCgHFWaM-47" value="Thin Client Register w/Peripherals" style="text;html=1;align=center;verticalAlign=middle;resizable=0;points=[];autosize=1;strokeColor=none;fillColor=none;" vertex="1" parent="1">
          <mxGeometry x="304" y="780" width="200" height="30" as="geometry" />
        </mxCell>
        <mxCell id="mJUBUc1-brahjCgHFWaM-48" value="Mobile Devices" style="text;html=1;align=center;verticalAlign=middle;resizable=0;points=[];autosize=1;strokeColor=none;fillColor=none;" vertex="1" parent="1">
          <mxGeometry x="105" y="750" width="100" height="30" as="geometry" />
        </mxCell>
        <mxCell id="mJUBUc1-brahjCgHFWaM-54" style="edgeStyle=orthogonalEdgeStyle;rounded=0;orthogonalLoop=1;jettySize=auto;html=1;exitX=1;exitY=0.5;exitDx=0;exitDy=0;entryX=0;entryY=0.5;entryDx=0;entryDy=0;" edge="1" parent="1" source="mJUBUc1-brahjCgHFWaM-49" target="mJUBUc1-brahjCgHFWaM-53">
          <mxGeometry relative="1" as="geometry" />
        </mxCell>
        <mxCell id="mJUBUc1-brahjCgHFWaM-49" value="" style="rounded=0;whiteSpace=wrap;html=1;fillColor=#fff2cc;strokeColor=#d6b656;" vertex="1" parent="1">
          <mxGeometry x="50" y="330" width="30" height="40" as="geometry" />
        </mxCell>
        <mxCell id="mJUBUc1-brahjCgHFWaM-50" value="" style="rounded=0;whiteSpace=wrap;html=1;fillColor=#fff2cc;strokeColor=#d6b656;" vertex="1" parent="1">
          <mxGeometry x="80" y="785" width="20" height="20" as="geometry" />
        </mxCell>
        <mxCell id="mJUBUc1-brahjCgHFWaM-51" value="Thin Client Office Desktop" style="text;html=1;align=center;verticalAlign=middle;resizable=0;points=[];autosize=1;strokeColor=none;fillColor=none;" vertex="1" parent="1">
          <mxGeometry x="104" y="780" width="160" height="30" as="geometry" />
        </mxCell>
        <mxCell id="mJUBUc1-brahjCgHFWaM-53" value="" style="rounded=0;whiteSpace=wrap;html=1;fillColor=#e1d5e7;strokeColor=#9673a6;" vertex="1" parent="1">
          <mxGeometry x="130" y="350" width="30" height="30" as="geometry" />
        </mxCell>
        <mxCell id="mJUBUc1-brahjCgHFWaM-55" value="" style="rounded=0;whiteSpace=wrap;html=1;fillColor=#e1d5e7;strokeColor=#9673a6;" vertex="1" parent="1">
          <mxGeometry x="519" y="755" width="20" height="20" as="geometry" />
        </mxCell>
        <mxCell id="mJUBUc1-brahjCgHFWaM-57" value="VDI" style="text;html=1;align=center;verticalAlign=middle;resizable=0;points=[];autosize=1;strokeColor=none;fillColor=none;" vertex="1" parent="1">
          <mxGeometry x="550" y="750" width="40" height="30" as="geometry" />
        </mxCell>
      </root>
    </mxGraphModel>
  </diagram>
</mxfile>
